{"title":"Breaking Bad Season 1 Bluray 720p_rvarun7777","uid":9042552,"size":7548784200,"categoryP":"video","categoryS":"hd___tv_shows","magnet":"?xt=urn:btih:887f758a8d670cb4aad3fa8b0650bac9035c7b36&amp;dn=Breaking+Bad+Season+1+Bluray+720p_rvarun7777&amp;tr=udp%3A%2F%2Ftracker.openbittorrent.com%3A80&amp;tr=udp%3A%2F%2Fopen.demonii.com%3A1337&amp;tr=udp%3A%2F%2Ftracker.coppersurfer.tk%3A6969&amp;tr=udp%3A%2F%2Fexodus.desync.com%3A6969","seeders":7,"leechers":1,"uploader":"rvarun7777","files":9,"time":1381670559,"description":"[size=200][color=blue]Breaking Bad Season 1 BluRay 720p[/color][/size]\n[IMG]http://imageshack.com/a/img823/6005/0b5v.jpg[/IMG]\n[IMG]http://imageshack.com/a/img707/8380/ql6k.jpg[/IMG]\n\n[size=200][color=navy]Encoded to the lowest size on net!!!![/color][/size]\n[IMG]http://imgon.net/di-9VYZ.gif[/IMG]\n\n[color=red][size=200]For more encodes,Follow us on\n\nGeneral\nBreaking Bad Season1 \nFormat : Matroska\nFormat version : Version 2\nFile size : 1GB\nDuration : 47mn 13s\nOverall bit rate : 2961 Kbps\nEncoded date : UTC 2011-08-06 20:08:22\nWriting application : mkvmerge v4.8.0 ('I Got The...') built on May 24 2011 03:12:58\nWriting library : libebml v1.2.0 + libmatroska v1.1.0\n \nVideo\nID : 1\nFormat : AVC\nFormat/Info : Advanced Video Codec\nFormat profile : &lt;a class=&quot;__cf_email__&quot; href=&quot;/cdn-cgi/l/email-protection&quot; data-cfemail=&quot;1058797778505c243e21&quot;&gt;[email&amp;#160;protected]&lt;/a&gt;&lt;script cf-hash='f9e31' type=&quot;text/javascript&quot;&gt;\n/* &lt;![CDATA[ */!function(){try{var t=&quot;currentScript&quot;in document?document.currentScript:function(){for(var t=document.getElementsByTagName(&quot;script&quot;),e=t.length;e--;)if(t[e].getAttribute(&quot;cf-hash&quot;))return t[e]}();if(t&amp;&amp;t.previousSibling){var e,r,n,i,c=t.previousSibling,a=c.getAttribute(&quot;data-cfemail&quot;);if(a){for(e=&quot;&quot;,r=parseInt(a.substr(0,2),16),n=2;a.length-n;n+=2)i=parseInt(a.substr(n,2),16)^r,e+=String.fromCharCode(i);e=document.createTextNode(e),c.parentNode.replaceChild(e,c)}}}catch(u){}}();/* ]]&gt; */&lt;/script&gt;\nFormat settings, CABAC : Yes\nFormat settings, ReFrames : 5 frames\nCodec ID : V_MPEG4/ISO/AVC\nDuration : 47mn 13s\nBit rate : 2 575 Kbps\nWidth : 1 280 pixels\nHeight : 720 pixels\nDisplay aspect ratio : 16:9\nFrame rate mode : Constant\nFrame rate : 23.976 fps\nColor space : YUV\nChroma subsampling : 4:2:0\nBit depth : 8 bits\nScan type : Progressive\nBits/(Pixel*Frame) : 0.117\nStream size : 850 MiB (85%)\nWriting library : x264 core 115 r2008 4c552d8\nEncoding settings : cabac=1 // deblock=1:0:0 / analyse=0x3:0x113 / me=umh / subme=9 / psy=1 / psy_rd=1.00:0.00 // me_range=16 / chroma_me=1 / trellis=1 / 8x8dct=1 / cqm=0 / deadzone=21,11 / fast_pskip=1 / chroma_qp_offset=-2 / threads=12 / sliced_threads=0 / nr=0 / decimate=1 / interlaced=0 / bluray_compat=0 / constrained_intra=0 / bframes=5 / b_pyramid=2 / b_adapt=1 / b_bias=0 / direct=1 / weightb=1 / open_gop=0 / weightp=2 / keyint=250 / keyint_min=23 / scenecut=40 / intra_refresh=0 / rc_lookahead=40 / rc=2pass / mbtree=1 / bitrate=2575 / ratetol=1.0 / qcomp=0.60 / qpmin=0 / qpmax=69 / qpstep=4 / cplxblur=20.0 / qblur=0.5 / vbv_maxrate=20000 / vbv_bufsize=15000 / nal_hrd=none / ip_ratio=1.40 / aq=1:1.00\nLanguage : English\nDefault : Yes\nForced : No\nColor primaries : BT.709\nTransfer characteristics : BT.709\nMatrix coefficients : BT.709\n \nAudio\nID : 2\nFormat : AC-3\nFormat/Info : Audio Coding 3\nMode extension : CM (complete main)\nFormat settings, Endianness : Big\nCodec ID : A_AC3\nDuration : 47mn 13s\nBit rate mode : Constant\nBit rate : 384 Kbps\nChannel(s) : 6 channels\nChannel positions : Front: L C R, Side: L R, LFE\nSampling rate : 48.0 KHz\nBit depth : 16 bits\nCompression mode : Lossy\nStream size : 130 MiB (13%)\nLanguage : English\nDefault : Yes\nForced : Yes\n[IMG]http://imageshack.com/a/img822/7110/5pt7.jpg[/IMG]","torrent":{"xt":"urn:btih:887f758a8d670cb4aad3fa8b0650bac9035c7b36","amp;dn":"Breaking+Bad+Season+1+Bluray+720p_rvarun7777","amp;tr":["udp%3A%2F%2Ftracker.openbittorrent.com%3A80","udp%3A%2F%2Fopen.demonii.com%3A1337","udp%3A%2F%2Ftracker.coppersurfer.tk%3A6969","udp%3A%2F%2Fexodus.desync.com%3A6969"],"infoHash":"887f758a8d670cb4aad3fa8b0650bac9035c7b36","infoHashBuffer":{"type":"Buffer","data":[136,127,117,138,141,103,12,180,170,211,250,139,6,80,186,201,3,92,123,54]},"announce":[],"urlList":[]}}